<svg xmlns="http://www.w3.org/2000/svg" viewBox="0 0 32 32" fill="#2563eb">
  <rect x="2" y="2" width="4" height="4"/>
  <rect x="6" y="2" width="4" height="4"/>
  <rect x="10" y="2" width="4" height="4"/>
  <rect x="2" y="6" width="4" height="4"/>
  <rect x="10" y="6" width="4" height="4"/>
  <rect x="2" y="10" width="4" height="4"/>
  <rect x="6" y="10" width="4" height="4"/>
  <rect x="10" y="10" width="4" height="4"/>
  <rect x="18" y="2" width="4" height="4"/>
  <rect x="18" y="6" width="4" height="4"/>
  <rect x="22" y="6" width="4" height="4"/>
  <rect x="26" y="2" width="4" height="4"/>
  <rect x="18" y="10" width="4" height="4"/>
  <rect x="26" y="10" width="4" height="4"/>
  <rect x="2" y="18" width="4" height="4"/>
  <rect x="6" y="18" width="4" height="4"/>
  <rect x="10" y="18" width="4" height="4"/>
  <rect x="18" y="18" width="4" height="4"/>
  <rect x="22" y="18" width="4" height="4"/>
  <rect x="26" y="18" width="4" height="4"/>
  <rect x="18" y="22" width="4" height="4"/>
  <rect x="26" y="22" width="4" height="4"/>
  <rect x="18" y="26" width="4" height="4"/>
  <rect x="22" y="26" width="4" height="4"/>
  <rect x="26" y="26" width="4" height="4"/>
  <rect x="2" y="22" width="4" height="4"/>
  <rect x="10" y="22" width="4" height="4"/>
  <rect x="2" y="26" width="4" height="4"/>
  <rect x="6" y="26" width="4" height="4"/>
  <rect x="10" y="26" width="4" height="4"/>
</svg>
